PathFileType	4	(X/Y/Z)	C:\Users\Basilio\Documents\Thesis Gigler\squatting_fais\c3dfiles\044\SLS_back_pre1\markers_experimental.trc
DataRate	CameraRate	NumFrames	NumMarkers	Units	OrigDataRate	OrigDataStartFrame	OrigNumFrames
200.000000	200.000000	4	68	mm	200.000000	0	1728
Frame#	Time	FHD			LBHD			RBHD			C7			T10			CLAV			LRAD			LRFIN			RSHO			RUPA1			RMUPA			RDUPA			RLEP			RMEP			RUL			LASI			RASI			USACR			LSACR			RSACR			LTHI1			LTHI2			LTHI3			LTHI4			LLFC			LMFC			LTIB1			LTIB2			LTIB3			LTIB4			LLMAL			LMMAL			LHEE			LMT1			LMT2			LMT5			RTHI			RTHI2			RTHI3			RTHI4			RLFC			RMFC			RTIB1			RTIB2			RTIB3			RTIB4			RLMAL			RMMAL			RHEE			RMT1			RMT2			RMT5			RUFIN			LSHO			LUUPA			LMUPA			LDUPA			LLEP			LMEP			LUL			*60			*61			*62			*63			*64			*65			*66			*67			
		X1	Y1	Z1	X2	Y2	Z2	X3	Y3	Z3	X4	Y4	Z4	X5	Y5	Z5	X6	Y6	Z6	X7	Y7	Z7	X8	Y8	Z8	X9	Y9	Z9	X10	Y10	Z10	X11	Y11	Z11	X12	Y12	Z12	X13	Y13	Z13	X14	Y14	Z14	X15	Y15	Z15	X16	Y16	Z16	X17	Y17	Z17	X18	Y18	Z18	X19	Y19	Z19	X20	Y20	Z20	X21	Y21	Z21	X22	Y22	Z22	X23	Y23	Z23	X24	Y24	Z24	X25	Y25	Z25	X26	Y26	Z26	X27	Y27	Z27	X28	Y28	Z28	X29	Y29	Z29	X30	Y30	Z30	X31	Y31	Z31	X32	Y32	Z32	X33	Y33	Z33	X34	Y34	Z34	X35	Y35	Z35	X36	Y36	Z36	X37	Y37	Z37	X38	Y38	Z38	X39	Y39	Z39	X40	Y40	Z40	X41	Y41	Z41	X42	Y42	Z42	X43	Y43	Z43	X44	Y44	Z44	X45	Y45	Z45	X46	Y46	Z46	X47	Y47	Z47	X48	Y48	Z48	X49	Y49	Z49	X50	Y50	Z50	X51	Y51	Z51	X52	Y52	Z52	X53	Y53	Z53	X54	Y54	Z54	X55	Y55	Z55	X56	Y56	Z56	X57	Y57	Z57	X58	Y58	Z58	X59	Y59	Z59	X60	Y60	Z60	X61	Y61	Z61	X62	Y62	Z62	X63	Y63	Z63	X64	Y64	Z64	X65	Y65	Z65	X66	Y66	Z66	X67	Y67	Z67	X68	Y68	Z68	

1	0	-210.0858001708985	1789.921875	-918.6467285156252	-363.2027893066407	1752.21240234375	-934.9431152343752	-342.6945800781251	1746.403686523438	-770.5964965820315	-392.7366333007814	1558.960815429688	-868.0825805664065	-367.9243774414063	1253.975708007813	-870.8837890625002	-247.973861694336	1539.017944335938	-875.5232543945315	222.4295501708985	1579.21142578125	-1017.67529296875	236.3646087646485	1599.844482421875	-915.9187011718752	-305.8822021484376	1568.0947265625	-710.9204101562501	-153.5935821533203	1549.632446289063	-606.5203857421876	-123.1652374267578	1568.19091796875	-642.4877929687501	-84.46487426757814	1556.552978515625	-597.6256713867189	-22.03693389892578	1566.425415039063	-606.2349243164064	-17.89046096801758	1481.989624023438	-613.7640991210939	210.740707397461	1584.454345703125	-768.3364257812502	-184.1869201660157	1071.939331054688	-990.7137451171877	-158.3222351074219	1060.008056640625	-773.017028808594	-341.5226135253907	1111.9345703125	-863.0932617187502	-347.2768249511719	1078.663208007813	-888.6867675781252	-339.3215332031251	1082.456420898438	-831.7141723632815	-291.3822326660157	837.695007324219	-1058.031127929688	-262.0672607421876	757.9271850585939	-1065.378540039063	-213.5866699218751	757.4229736328126	-1061.412109375	-291.6389770507813	706.5520629882814	-1052.206420898438	-283.7470397949219	545.5357666015626	-1046.4912109375	-266.3134765625001	531.9008789062501	-925.7617187500002	-260.9847106933594	365.3737792968751	-989.2153320312502	-291.0221252441407	324.7120361328126	-1061.646240234375	-259.2623291015626	320.6621704101563	-1027.552612304688	-273.7032165527344	240.5516510009766	-1002.987548828125	-327.9753112792969	125.2560958862305	-1054.85205078125	-305.8138732910157	130.9453582763672	-971.5640258789065	-388.8900451660157	99.46137237548831	-1007.371704101563	-180.6645202636719	59.1150360107422	-985.9716796875002	-179.0504913330078	59.04280090332033	-1032.82080078125	-216.7922515869141	45.5445899963379	-1079.655029296875	-261.6725769042969	791.431579589844	-691.1422729492189	-223.5375061035157	736.5550537109376	-696.1847534179689	-192.5505065917969	737.4188842773439	-704.1036376953126	-253.9985351562501	657.8500976562501	-709.3193969726564	-269.7518310546876	542.8042602539064	-719.9154052734376	-279.3163452148438	538.1503295898439	-843.5872192382815	-239.557357788086	410.9352111816407	-747.3051757812501	-314.9404907226563	345.7417907714844	-699.7924194335939	-273.9906311035157	335.3467712402344	-717.3385009765626	-268.7027893066407	284.0026855468751	-743.8034667968751	-348.5848388671876	137.6962280273438	-729.4232177734376	-327.1108398437501	141.8247375488282	-810.9558715820315	-407.9938354492189	111.1604843139649	-775.1533203125002	-202.9323425292969	63.25185394287111	-790.5758056640627	-197.8656311035157	59.26234054565431	-754.3467407226564	-238.854965209961	48.64584350585939	-701.4528808593751	nan	nan	nan	nan	nan	nan	nan	nan	nan	nan	nan	nan	nan	nan	nan	nan	nan	nan	nan	nan	nan	nan	nan	nan	-115.4629211425782	1575.971557617188	-1112.803955078125	-23.80396842956543	1564.817749023438	-1161.126708984375	-26.69720268249512	1482.81494140625	-1150.194580078125	-300.2737426757813	1585.952026367188	-1021.256530761719	-151.2967681884766	1561.123901367188	-1146.158203125	-84.30392456054689	1561.864013671875	-1162.628173828125	nan	nan	nan	nan	nan	nan	
2	0.005	-209.8418121337891	1789.954711914063	-918.2957153320315	-362.9165954589844	1752.28271484375	-934.9244384765627	-342.7369689941407	1746.397583007813	-770.5729980468752	-392.7366943359376	1558.960815429688	-868.0825195312502	-367.9206848144532	1253.977416992188	-870.9136962890627	-247.8835144042969	1538.996215820313	-875.4500732421877	222.355941772461	1579.125854492188	-1017.578002929688	236.3297882080079	1599.738891601563	-915.8238525390627	-305.9010925292969	1568.0205078125	-710.8625488281251	-153.6748504638672	1549.413696289063	-606.4609985351564	-123.1454010009766	1567.962524414063	-642.4304199218751	-84.46842193603517	1556.35546875	-597.5257568359376	-22.03926467895508	1566.280883789063	-606.1290283203126	-17.9557113647461	1481.85546875	-614.9852294921876	210.8540039062501	1584.330322265625	-768.2545166015627	-184.2542266845703	1071.887329101563	-990.6428833007815	-158.353988647461	1060.022583007813	-773.0357055664065	-341.5453186035157	1111.925903320313	-863.1237792968752	-347.3191833496094	1078.666870117188	-888.7026977539065	-339.3036193847657	1082.440551757813	-831.668151855469	-291.2767639160157	837.6818847656252	-1058.031616210938	-262.0279235839844	757.9209594726564	-1065.331665039063	-213.5509948730469	757.4258422851564	-1061.396118164063	-291.6375427246094	706.5253295898439	-1052.175537109375	-282.6691589355469	544.9661865234376	-1046.575561523438	-266.3267822265626	531.8508911132814	-925.7595825195315	-260.9406738281251	365.3845214843751	-989.219909667969	-290.9989624023438	324.7347717285157	-1061.62841796875	-259.2343444824219	320.6727600097657	-1027.550170898438	-273.6886291503907	240.5635223388672	-1002.991394042969	-326.5042724609376	123.7579345703125	-1054.31396484375	-305.7798767089844	130.9401550292969	-971.5695800781252	-388.805389404297	99.45536804199222	-1007.368957519531	-180.6688232421875	59.11179733276369	-985.9595336914065	-179.0459442138672	59.05250930786134	-1032.769287109375	-216.7806549072266	45.51263809204102	-1079.609619140625	-261.6543273925782	791.411804199219	-691.0835571289064	-223.3447875976563	736.1122436523439	-695.3624267578126	-192.5429229736329	737.4530029296876	-704.0838012695314	-253.9672851562501	657.8374023437501	-709.2708740234376	-269.7156066894532	542.7838745117189	-719.8920898437501	-279.3056640625001	538.1286010742189	-843.5401000976565	-239.4556732177735	410.9250793457032	-747.3756103515626	-314.9292297363282	345.7465820312501	-699.7562866210939	-273.9499816894532	335.3371887207032	-717.3135986328126	-268.6993103027344	283.9893798828126	-743.8081665039064	-348.5756835937501	137.7079010009766	-729.4171142578126	-327.1054077148438	141.8265380859375	-810.952575683594	-408.0081176757814	111.1935577392578	-775.1582641601565	-202.9005889892579	63.20606231689455	-790.5665283203127	-197.8558197021485	59.27215957641603	-754.3331909179689	-238.8742065429688	48.65069961547853	-701.4581909179689	nan	nan	nan	nan	nan	nan	nan	nan	nan	nan	nan	nan	nan	nan	nan	nan	nan	nan	nan	nan	nan	nan	nan	nan	-115.4527816772461	1575.929321289063	-1112.78369140625	-23.81900596618653	1564.796752929688	-1161.102294921875	-26.65380668640137	1482.7822265625	-1150.20751953125	-300.2766723632813	1585.972412109375	-1021.217163085938	-151.1250457763672	1561.342651367188	-1146.02685546875	-84.26000213623048	1561.79931640625	-1162.6064453125	nan	nan	nan	nan	nan	nan	
3	0.01	-209.7320251464844	1789.963500976563	-917.907165527344	-363.0041503906251	1751.804077148438	-934.9553833007815	-342.7819519042969	1746.368041992188	-770.5178222656252	-392.7093811035157	1558.95361328125	-868.0258789062502	-367.8599243164063	1253.986450195313	-870.9216918945315	-247.9453125000001	1538.951293945313	-875.4114379882815	222.2924346923829	1579.093505859375	-1017.461059570313	236.3440246582032	1599.697143554688	-915.755798339844	-305.9380493164063	1567.944458007813	-710.7873535156251	-153.500961303711	1548.778930664063	-606.0309448242189	-123.1516647338867	1567.871704101563	-642.3562011718751	-84.49769592285158	1556.192626953125	-597.4578247070314	-22.06032752990723	1566.020141601563	-606.0452880859376	-17.96708106994629	1481.681518554688	-614.9468383789064	210.7311248779297	1584.1591796875	-768.0739746093752	-184.0920104980469	1071.903564453125	-990.6380004882815	-158.3391418457032	1060.026733398438	-772.9912109375002	-341.5179443359376	1111.948364257813	-863.093200683594	-347.2841796875001	1078.661743164063	-888.6862792968752	-339.3549499511719	1082.498901367188	-831.694519042969	-291.1823120117188	837.618591308594	-1058.003662109375	-262.0279235839844	757.9209594726564	-1065.331665039063	-213.4823913574219	757.3972778320314	-1061.350219726563	-291.6397705078126	706.5433959960939	-1052.171264648438	-283.6224975585938	545.5268554687501	-1046.4521484375	-266.2994384765626	531.8701782226564	-925.7117919921877	-260.8877258300782	365.3949279785157	-989.2305908203127	-290.9615783691407	324.7435302734376	-1061.636474609375	-259.2301330566407	320.6741027832032	-1027.523681640625	-273.6946105957032	240.5158233642579	-1002.994750976563	-327.9905395507813	125.2697830200196	-1054.881103515625	-305.7697753906251	130.9397583007813	-971.5626220703127	-388.8713378906251	99.47502136230472	-1007.375244140625	-180.6685485839844	59.12273406982423	-985.9495239257815	-179.1038360595703	58.98809814453126	-1032.8125	-216.7066802978516	45.56522369384766	-1079.6796875	-261.7007141113282	791.4075927734377	-691.1107177734376	-223.3538513183594	736.0692138671876	-695.3768310546876	-192.534408569336	737.4409790039064	-704.0251464843751	-253.9862365722657	657.8356323242189	-709.2178344726564	-269.4219360351563	542.3105468750001	-719.3656616210939	-279.2322998046876	538.1405029296876	-843.503356933594	-239.3910522460938	410.861541748047	-747.3142089843751	-314.8952026367188	345.7548522949219	-699.7486572265626	-273.9374084472657	335.3330383300782	-717.2938842773439	-268.6972045898438	283.9822387695313	-743.8112182617189	-348.5831909179688	137.6924133300782	-729.4223022460939	-327.1318969726563	141.83203125	-810.9621582031252	-408.0400695800782	111.2173080444336	-775.1488037109377	-202.9323272705079	63.23485946655275	-790.578552246094	-197.8501739501954	59.27558517456056	-754.3256835937501	-238.8721466064454	48.65034103393556	-701.4555053710939	nan	nan	nan	nan	nan	nan	nan	nan	nan	nan	nan	nan	nan	nan	nan	nan	nan	nan	nan	nan	nan	nan	nan	nan	-115.4424591064453	1575.946166992188	-1112.75537109375	-23.86590194702149	1564.771118164063	-1161.047607421875	-26.68593406677247	1482.755004882813	-1150.1806640625	-300.2577514648438	1585.974731445313	-1021.187133789063	-151.1273956298828	1561.269165039063	-1146.0361328125	-84.26438140869142	1561.798095703125	-1162.557495117188	nan	nan	nan	nan	nan	nan	
4	0.015	-209.6072082519532	1789.992919921875	-917.5344238281252	-362.3348388671876	1752.385498046875	-934.9556274414065	-342.7883605957032	1746.368774414063	-770.4946289062502	-392.6571655273439	1558.943603515625	-868.003112792969	-367.8046875000001	1253.976806640625	-870.9283447265627	-247.8612518310547	1538.986206054688	-875.3151855468752	222.2211303710938	1579.008178710938	-1017.342163085938	236.3036346435547	1599.595947265625	-915.6674804687502	-305.8941955566407	1567.833862304688	-710.7411499023439	-153.4805908203125	1548.556762695313	-605.9237060546876	-123.1494445800782	1567.758056640625	-642.2894897460939	-84.57695770263673	1555.979125976563	-597.3181762695314	-22.01929664611817	1565.699829101563	-605.9723510742189	-18.02352714538575	1481.388427734375	-614.8116455078126	210.7991485595704	1583.984985351563	-767.9434204101564	-184.1548004150391	1071.846557617188	-990.5751953125002	-158.3387145996094	1060.02685546875	-772.966735839844	-341.5222778320313	1111.970092773438	-863.0936279296877	-347.2131347656251	1078.663452148438	-888.688903808594	-339.3497009277344	1082.515869140625	-831.6941528320315	-291.2696228027344	837.6330566406252	-1057.96533203125	-261.9581298828126	757.9226074218751	-1065.297607421875	-213.5046844482422	757.4276123046876	-1061.323120117188	-291.5775451660157	706.5169067382814	-1052.154052734375	-283.6055908203126	545.5612792968751	-1046.432983398438	-266.2487487792969	531.8767089843751	-925.6907348632815	-260.8968811035157	365.3952941894532	-989.2244262695315	-290.9090576171876	324.7406921386719	-1061.639892578125	-259.2037353515626	320.6799621582032	-1027.559692382813	-273.6706542968751	240.5471801757813	-1002.956848144531	-327.9759216308594	125.2564926147461	-1054.85205078125	-305.7937927246094	130.9493713378907	-971.5520019531252	-388.8860473632814	99.50904083251956	-1007.377502441406	-180.6754608154297	59.10516357421876	-985.9675903320315	-179.0565643310547	59.03662490844728	-1032.823120117188	-216.7810668945313	45.50769424438477	-1079.65771484375	-261.7136230468751	791.4143066406252	-691.0677490234376	-223.4000244140626	736.0975341796876	-695.3003540039064	-192.5532684326172	737.4360351562501	-703.9938964843751	-253.993392944336	657.8367919921876	-709.1659545898439	-269.6357116699219	542.7752685546876	-719.7824707031251	-279.1612548828126	538.1355590820314	-843.5009765625002	-239.3230133056641	410.8648986816407	-747.2748413085939	-314.8848266601563	345.7647399902344	-699.7503662109376	-273.8951416015626	335.3335876464844	-717.2504882812501	-268.6376037597657	283.9718627929688	-743.7672119140626	-348.5777587890626	137.7110290527344	-729.4217529296876	-327.0491943359376	141.8289489746094	-810.919616699219	-408.0115661621095	111.2228164672852	-775.1714477539065	-202.908920288086	63.22212982177736	-790.565856933594	-197.8531494140626	59.27131652832033	-754.3300781250001	-238.8538665771485	48.64585876464845	-701.4512329101564	nan	nan	nan	nan	nan	nan	nan	nan	nan	nan	nan	nan	nan	nan	nan	nan	nan	nan	nan	nan	nan	nan	nan	nan	-115.39794921875	1575.910400390625	-1112.745239257813	-23.80459022521973	1564.744750976563	-1161.061279296875	-26.98369789123536	1483.654052734375	-1150.327880859375	-300.2719421386719	1585.999145507813	-1021.177429199219	-151.1742706298828	1561.191528320313	-1146.047119140625	-84.16946411132814	1561.778564453125	-1162.548461914063	nan	nan	nan	nan	nan	nan	
